<svg xmlns="http://www.w3.org/2000/svg" xmlns:xlink="http://www.w3.org/1999/xlink" width="230.923" height="50.098" viewBox="0 0 230.923 50.098">
  <defs>
    <linearGradient id="linear-gradient" x1="0.5" x2="0.5" y2="1" gradientUnits="objectBoundingBox">
      <stop offset="0" stop-color="#8f1db0"/>
      <stop offset="1" stop-color="#fb2e6d"/>
    </linearGradient>
  </defs>
  <g id="world-pink" transform="translate(-575.308 -1999.866)">
    <path id="Intersection_3" data-name="Intersection 3" d="M223.2,81.809a13.368,13.368,0,0,1-3.047-3.118,17.368,17.368,0,0,1-2.255-4.244,12.625,12.625,0,0,1-.835-4.342,2.256,2.256,0,0,1,.39-1.559,5.848,5.848,0,0,1,.751-.556q4.675-2.894,4.676-5.483,0-1.365-1.2-1.364-1.28,0-3.3,2.463a27.918,27.918,0,0,0-3.66,6.026,8.944,8.944,0,0,1-1.669,2.867,2.953,2.953,0,0,1-1.976.557,4.126,4.126,0,0,1-2.561-.821,5.268,5.268,0,0,1-1.684-2.338,9.393,9.393,0,0,1-.6-3.465,32.029,32.029,0,0,1,.752-6.568,49.18,49.18,0,0,1,2.1-7.153A55.515,55.515,0,0,1,212.3,45.7a44.652,44.652,0,0,1,3.9-6.039q4.008-5.067,7.821-5.066a6.62,6.62,0,0,1,3.381.863,5.8,5.8,0,0,1,2.3,2.449,8.058,8.058,0,0,1,.807,3.7,11.506,11.506,0,0,1-1.281,5.163,12.232,12.232,0,0,1-3.326,4.2,6.587,6.587,0,0,1-4.106,1.628q-.973,0-.974-.7a4.468,4.468,0,0,1,.5-1.308A24.011,24.011,0,0,0,223.77,39.6q0-1.586-.39-1.587-.278,0-.849.807a12.038,12.038,0,0,0-1.1,1.976,61.669,61.669,0,0,0-4.425,15.837q-.084.473-.181,1.252t-.237,1.781l.112.112a24.466,24.466,0,0,1,1.878-2.407,14.878,14.878,0,0,1,1.963-1.712q3.757-2.95,7.014-2.95a3.921,3.921,0,0,1,2.741.974,3.234,3.234,0,0,1,1.071,2.5,15,15,0,0,1-2.39,7.735,20.6,20.6,0,0,1-1.544,2.309q-.876,1.141-2.516,2.949a39.1,39.1,0,0,0,2.288,3.419,20.306,20.306,0,0,0,2.873,3,10.129,10.129,0,0,1,2.153,2.342q-3.9,5.018-5.928,5.018A5.423,5.423,0,0,1,223.2,81.809ZM34.373,75.894a8.279,8.279,0,0,1-1.378-1.906,7.659,7.659,0,0,1-.7-2.282,23.285,23.285,0,0,1-.209-3.493q0-1.419.334-5.872l-.112-.112-.5.7-7.6,7.793a13.84,13.84,0,0,1-2.38,2.018,3.8,3.8,0,0,1-1.99.543,3.71,3.71,0,0,1-2.853-1.266,4.438,4.438,0,0,1-1.155-3.1,10.026,10.026,0,0,1,.348-2.491A40.523,40.523,0,0,1,17.562,62.4q.2-.556.376-.96c.121-.269.218-.5.292-.682l-.112-.111q-2.7,2.839-5.288,5.983Q10.66,69.215,9.38,70.5a13.517,13.517,0,0,1-2.31,1.921,3.589,3.589,0,0,1-1.837.64,3.387,3.387,0,0,1-2.867-1.419,6.338,6.338,0,0,1-1.058-3.869q0-3.089,2.672-9.992a57.65,57.65,0,0,1,3.7-8.21q1.92-2.894,4.4-2.894a4.158,4.158,0,0,1,2.489.709,2.18,2.18,0,0,1,.987,1.849,20.791,20.791,0,0,1-1.58,6.37q-.61,1.585-1.248,3.587l.112.112q1.029-1.141,3.309-3.922a59.131,59.131,0,0,1,5.926-6.593q2.589-2.392,4.733-2.392a2.992,2.992,0,0,1,1.81.641,4.526,4.526,0,0,1,1.378,1.712,5.119,5.119,0,0,1,.515,2.241,28.226,28.226,0,0,1-1.719,6.126q-.362,1.03-.555,1.615t-.36,1l.139.112.695-.7q.306-.306.681-.654t.708-.654q.751-.725,3.779-3.816a22.627,22.627,0,0,1,3.142-3.049,3.792,3.792,0,0,1,2.2-.821,3.109,3.109,0,0,1,2.63,1.183,5.69,5.69,0,0,1,.9,3.493,34.88,34.88,0,0,1-.445,4.481q-.389,3.452-.543,5.414t-.153,2.741q0,.585.069,1.489t.237,1.934q.167,1.03.445,2.282.333,1.531.445,2.393a2.688,2.688,0,0,1-1.462,1.7,5.4,5.4,0,0,1-2.686.7A5.941,5.941,0,0,1,34.373,75.894Zm12.747-4.23a7.271,7.271,0,0,1-2.031-5.288,13.787,13.787,0,0,1,1-4.675,24.859,24.859,0,0,1,2.755-5.288,27.083,27.083,0,0,1,7.348-7.18A15.95,15.95,0,0,1,64.988,46.2a10.736,10.736,0,0,1,5.858,1.461,4.291,4.291,0,0,1,2.3,3.688A6.642,6.642,0,0,1,72,54.825a3.471,3.471,0,0,1,1.892.32q.39.32.39,1.489,0-.112-.139,1.14-.167,2.755-.167,5.149,0,1.253.028,1.893t.112,1.475q.084.836.167,1.337a13.162,13.162,0,0,0,.724,2.588,13,13,0,0,1-3.2,2.408,6.9,6.9,0,0,1-3.117.765q-4.286,0-4.287-7.18,0-.75.045-1.208l-.1-.1A52.449,52.449,0,0,1,59.6,69.869a20.966,20.966,0,0,1-3.98,2.909,7.214,7.214,0,0,1-3.354.974A6.88,6.88,0,0,1,47.12,71.664ZM60.925,50.985a26.326,26.326,0,0,0-4.106,5.761,11.774,11.774,0,0,0-1.517,5.26,4.7,4.7,0,0,0,.626,2.533,1.829,1.829,0,0,0,1.572,1q.807,0,3.019-1.725a49.939,49.939,0,0,0,4.968-4.565l.751-.612-.111-.112-.529.167a12.429,12.429,0,0,1-2.894.556q-1.085,0-1.085-.556a3.619,3.619,0,0,1,.445-1.03,8.2,8.2,0,0,0,1.558-4.453,5.547,5.547,0,0,0-.418-2.185q-.417-.988-.918-.988Q61.843,50.038,60.925,50.985ZM80.931,73.278a3.456,3.456,0,0,1-2.28-1.141,6.613,6.613,0,0,1-1.46-2.408,10.84,10.84,0,0,1-.43-3.353,36.908,36.908,0,0,1,1.712-10.367q1.71-5.775,3.882-8.364a2.886,2.886,0,0,1,2.393-1.085,3,3,0,0,1,2.6,1.475,6.832,6.832,0,0,1,.988,3.868,40.189,40.189,0,0,1-1.018,8.279,77.006,77.006,0,0,1-2.858,9.866,5.481,5.481,0,0,1-1.779,2.785,3.164,3.164,0,0,1-1.7.445Zm40.278-1.391a8.361,8.361,0,0,1-3.1-3.687,13.319,13.319,0,0,1-1.1-5.581,27.056,27.056,0,0,1,.974-6.749,47.818,47.818,0,0,1,2.727-7.626,54.491,54.491,0,0,1,4.175-7.556,21.031,21.031,0,0,1,5.872-6.206,8.166,8.166,0,0,1,4.787-1.615,5.473,5.473,0,0,1,4.091,1.559,5.661,5.661,0,0,1,1.531,4.147,6.809,6.809,0,0,1-1.406,3.855,11.761,11.761,0,0,1-3.534,3.325,7.932,7.932,0,0,1-4.161,1.308q-.975,0-.975-.5a3.22,3.22,0,0,1,.807-1.419,16.125,16.125,0,0,0,2.255-3.855,10.076,10.076,0,0,0,.918-3.8q0-1.474-.445-1.475-.558,0-1.726,1.837a23.976,23.976,0,0,0-2.087,4.2,80.871,80.871,0,0,0-3.34,10.785,40.019,40.019,0,0,0-1.169,8.7,10.591,10.591,0,0,0,.877,4.55q.877,1.851,2.129,1.851a3.069,3.069,0,0,0,2.644-1.8,11.277,11.277,0,0,0,1.253-5,3.847,3.847,0,0,1-.975.223,2.022,2.022,0,0,1-1.6-.724A2.707,2.707,0,0,1,130,58.806a14.743,14.743,0,0,1,1.559-5.678,16.67,16.67,0,0,1,3.284-5.149,3.915,3.915,0,0,1,2.839-1.253,3.013,3.013,0,0,1,2.116.822,5.225,5.225,0,0,1,1.364,2.365,12.358,12.358,0,0,1,.473,3.6,22.217,22.217,0,0,1-2.171,9.714,19.136,19.136,0,0,1-5.79,7.236,12.74,12.74,0,0,1-7.765,2.7A8.549,8.549,0,0,1,121.208,71.887Zm-27.721-1.2a8.356,8.356,0,0,1-2.365-6.178A24.568,24.568,0,0,1,92.458,57.2a51.835,51.835,0,0,1,3.577-8.433,52.81,52.81,0,0,1,4.912-7.695,25.347,25.347,0,0,1,5.288-5.288,5.887,5.887,0,0,1,3.59-1.2,4.4,4.4,0,0,1,2.728.932,5.954,5.954,0,0,1,1.892,2.6,9.881,9.881,0,0,1,.669,3.7,22.335,22.335,0,0,1-1.712,8.545,21.816,21.816,0,0,1-4.774,7.236,15.525,15.525,0,0,1-2.783,2.31,4.6,4.6,0,0,1-2.338.834q-.973,0-.974-.751a4.089,4.089,0,0,1,.724-1.586,33.3,33.3,0,0,0,2.282-4.621q.111-.306.25-.654t.334-.959a54.78,54.78,0,0,0,1.865-6.583,26.742,26.742,0,0,0,.751-5.274q0-.5-.278-.5-.445,0-1.559,1.99a27.808,27.808,0,0,0-1.865,4.05q-1.615,4.536-2.491,7.528a43.674,43.674,0,0,0-1.211,5.024A25.564,25.564,0,0,0,101,62.563a6.438,6.438,0,0,0,.4,2.644,1.349,1.349,0,0,0,1.294.835,6.1,6.1,0,0,0,3.424-1.35,14.391,14.391,0,0,0,3.424-3.549q1.2-1.642,1.865-1.642.863,0,.862,1.363a10.47,10.47,0,0,1-1.865,5.817,14.792,14.792,0,0,1-4.8,4.606,11.5,11.5,0,0,1-6,1.768A8.286,8.286,0,0,1,93.488,70.69Zm88.187,1.253a12.017,12.017,0,0,1-4.523-2.644,8.546,8.546,0,0,1-2.227-6.318,14.53,14.53,0,0,1,1.587-6.457,21.058,21.058,0,0,1,4.3-5.859,21.666,21.666,0,0,1,5.984-4.147A15.578,15.578,0,0,1,193.4,45q4.147,0,4.147.974,0,1.114-1.865,1.2a9.338,9.338,0,0,0-4.2,1.281,12.063,12.063,0,0,0-3.465,3.117,15.53,15.53,0,0,0-2.365,4.453,16.025,16.025,0,0,0-.849,5.233,7.81,7.81,0,0,0,1.419,4.884,4.45,4.45,0,0,0,3.7,1.851,4.551,4.551,0,0,0,3.7-2.171,8.358,8.358,0,0,0,1.586-5.066,10.187,10.187,0,0,0-.988-4.439,9.326,9.326,0,0,0-2.88-3.493q-.807-.64-.807-.919,0-.389,1.141-1.2a13.3,13.3,0,0,1,2.867-1.447,8.022,8.022,0,0,1,2.672-.585,4.665,4.665,0,0,1,2.38.654,6.393,6.393,0,0,1,1.99,1.865,9.189,9.189,0,0,1,1.322,2.783,11.917,11.917,0,0,1,.459,3.354,16.047,16.047,0,0,1-1.113,5.83,13,13,0,0,1-2.922,4.662,18.847,18.847,0,0,1-5.636,3.688,15.767,15.767,0,0,1-6.277,1.433A17.237,17.237,0,0,1,181.674,71.942Zm-30.894,0a12.02,12.02,0,0,1-4.523-2.644,8.546,8.546,0,0,1-2.227-6.318,14.53,14.53,0,0,1,1.587-6.457,21.058,21.058,0,0,1,4.3-5.859,21.675,21.675,0,0,1,5.983-4.147A15.585,15.585,0,0,1,162.511,45q4.147,0,4.147.974,0,1.114-1.865,1.2a9.334,9.334,0,0,0-4.2,1.281,12.062,12.062,0,0,0-3.465,3.117,15.508,15.508,0,0,0-2.365,4.453,16.025,16.025,0,0,0-.85,5.233,7.811,7.811,0,0,0,1.42,4.884,4.449,4.449,0,0,0,3.7,1.851,4.548,4.548,0,0,0,3.7-2.171,8.352,8.352,0,0,0,1.587-5.066,10.187,10.187,0,0,0-.988-4.439,9.334,9.334,0,0,0-2.88-3.493q-.807-.64-.807-.919,0-.389,1.141-1.2a13.3,13.3,0,0,1,2.867-1.447,8.022,8.022,0,0,1,2.672-.585,4.667,4.667,0,0,1,2.38.654,6.393,6.393,0,0,1,1.99,1.865,9.189,9.189,0,0,1,1.322,2.783,11.917,11.917,0,0,1,.459,3.354,16.047,16.047,0,0,1-1.113,5.83,13.013,13.013,0,0,1-2.922,4.662,18.847,18.847,0,0,1-5.636,3.688,15.767,15.767,0,0,1-6.277,1.433A17.247,17.247,0,0,1,150.78,71.942Zm-66.5-26.635q-2.616-.084-2.616-3.145a10.213,10.213,0,0,1,.766-3.549,8.458,8.458,0,0,1,1.74-2.992,3.154,3.154,0,0,1,1.015-.751,3.357,3.357,0,0,1,1.322-.223,2.721,2.721,0,0,1,2.046.682A3.214,3.214,0,0,1,89.2,37.6a10.316,10.316,0,0,1-.682,3.744A7.819,7.819,0,0,1,86.7,44.208a3.386,3.386,0,0,1-2.338,1.1Z" transform="translate(574 1967)" fill="url(#linear-gradient)"/>
  </g>
</svg>
